<svg xmlns="http://www.w3.org/2000/svg" width="413" height="256" viewBox="0 0 413 256" version="1.1">
	<path d="M 209.500 8.468 C 196.079 11.397, 176.886 19.616, 167.500 26.456 C 163.590 29.304, 162 30.227, 162 29.648 C 162 28.780, 177.067 17.541, 183.313 13.750 C 191.529 8.763, 189.418 8.987, 180 14.101 C 157.311 26.422, 144.673 39.489, 125.937 70 C 124.483 72.367, 114.716 93.688, 111.048 102.500 C 109.217 106.900, 106.680 112.975, 105.412 116 C 104.143 119.025, 101.232 126, 98.942 131.500 C 93.693 144.108, 82.292 166.690, 77.197 174.573 C 63.505 195.758, 38.737 215.133, 27.501 213.448 C 25.156 213.096, 22.982 213.220, 22.671 213.723 C 22.354 214.236, 23.512 214.442, 25.303 214.191 C 27.061 213.946, 28.212 214.053, 27.859 214.430 C 27.507 214.807, 22.578 215.474, 16.907 215.913 C 10.718 216.393, 6.444 217.169, 6.215 217.856 C 6.005 218.485, 5.212 219, 4.452 219 C 1.421 219, -0.174 226.938, 2.030 231.055 C 5.620 237.764, 29.960 243.939, 53.500 244.112 C 87.925 244.365, 114.098 233.407, 137.266 209.040 L 146.867 198.944 151.574 206.222 C 160.103 219.410, 171.979 230.111, 191.935 242.590 C 197.739 246.219, 215.694 252.350, 225.082 253.908 C 239.700 256.333, 268.983 254.199, 276.788 250.139 C 277.730 249.649, 282.100 248.032, 286.500 246.546 C 301.089 241.617, 312.947 233.607, 339 211.085 C 369.568 184.658, 371.204 183.722, 390.564 181.589 C 403.824 180.127, 405.543 179.521, 409.392 174.946 C 420.436 161.821, 397.032 152.187, 370.585 158.972 C 360.958 161.442, 359.393 160.896, 368.150 158.123 C 371.643 157.017, 373.890 156.087, 373.144 156.056 C 370.849 155.961, 359.918 159.032, 355.596 160.987 C 353.343 162.005, 350.487 163.130, 349.249 163.487 C 348.011 163.844, 341.036 167.759, 333.749 172.188 C 312.471 185.119, 301.723 189, 287.184 189 C 258.110 189, 234.819 170.297, 229.372 142.576 C 222.019 105.148, 260.333 77.987, 286.483 102.091 C 289.611 104.974, 292.389 109.029, 295.034 114.572 C 299.939 124.849, 303.414 128, 309.842 128 C 320.742 128, 325.410 121.764, 326.994 105.090 C 328.225 92.134, 326.233 70.120, 323.957 71.527 C 323.473 71.826, 322.339 69.467, 321.438 66.285 C 317.602 52.738, 308.738 38.527, 297.856 28.477 C 289.689 20.934, 287.489 19.534, 293.214 25.523 C 296.357 28.810, 300 33.525, 301.311 36 C 302.622 38.475, 305.065 42.975, 306.740 46 C 308.416 49.025, 310.073 52.625, 310.425 54 C 310.819 55.542, 310.244 54.967, 308.925 52.500 C 304.763 44.717, 300.785 39.015, 299.898 39.563 C 299.404 39.868, 299 39.641, 299 39.059 C 299 38.477, 298.425 38, 297.722 38 C 297.019 38, 295.667 37.092, 294.717 35.982 C 293.454 34.507, 292.251 34.121, 290.245 34.545 C 287.872 35.047, 287.749 34.969, 289.334 33.967 C 291.082 32.861, 291.060 32.693, 288.857 30.348 C 287.389 28.785, 287.085 28.019, 288.024 28.247 C 288.836 28.444, 288.488 28.157, 287.250 27.609 C 286.012 27.062, 285 26.196, 285 25.685 C 285 25.173, 284.325 25.315, 283.500 26 C 282.265 27.025, 282 26.939, 282 25.515 C 282 24.349, 281.485 23.984, 280.418 24.393 C 279.548 24.727, 278.648 25, 278.418 25 C 277.149 25, 278.272 26.919, 279.750 27.274 C 281.188 27.620, 281.059 27.875, 279.026 28.702 C 277.106 29.484, 275.876 29.301, 273.526 27.884 C 271.862 26.880, 267.899 24.784, 264.720 23.226 C 261.541 21.668, 259.254 20.079, 259.637 19.696 C 260.719 18.614, 263.194 18.877, 262.500 20 C 262.160 20.550, 262.331 21, 262.879 21 C 263.427 21, 263.812 20.152, 263.734 19.115 C 263.593 17.246, 262.529 17.140, 255 18.245 C 252.577 18.600, 242 16.919, 242 16.178 C 242.001 15.805, 243.839 15.439, 246.085 15.365 C 251.292 15.193, 253.132 13.572, 250.446 11.522 C 248.651 10.153, 248.849 10.069, 253 10.441 L 257.500 10.845 253 9.353 C 247.497 7.528, 232 6.302, 232 7.692 C 232 8.228, 231.325 8.667, 230.500 8.667 C 229.675 8.667, 229 8.292, 229 7.833 C 229 6.572, 216.295 6.986, 209.500 8.468 M 216.500 33.899 C 199.132 38.631, 186.587 45.601, 174.923 57 C 160.537 71.060, 152.896 84.659, 137.282 124 C 121.914 162.719, 112.040 181.918, 98.794 198.834 C 92.939 206.312, 93.041 207.071, 99.340 202.898 C 110.721 195.360, 121.648 181.010, 140.003 149.500 C 162.452 110.960, 173.337 97.360, 193.960 82.083 C 221.586 61.620, 258.787 55.729, 285.574 67.575 C 294.005 71.304, 294.683 70.708, 290.786 63 C 281.616 44.862, 260.324 33.168, 235 32.359 C 225.938 32.070, 222.016 32.397, 216.500 33.899 M 236.734 65.584 C 228.052 67.153, 213.830 72.295, 211.969 74.537 C 210.113 76.773, 212.611 76.424, 220.024 73.412 C 230.744 69.056, 245.786 66.671, 258 67.391 C 271.902 68.211, 275.692 69.206, 287.215 75.060 C 295.700 79.372, 302 81.235, 302 79.434 C 302 77.394, 299.642 74.923, 298.216 75.470 C 297.262 75.837, 292.840 74.243, 287.543 71.622 C 272.465 64.163, 255.647 62.164, 236.734 65.584 M 191.250 127.250 C 178.134 144.650, 170 159.270, 170 165.449 C 170 181.211, 187.738 207.603, 205.221 217.855 C 228.753 231.652, 259.387 232.399, 281.834 219.722 L 287.500 216.523 284.500 215.880 C 282.850 215.526, 279.475 215.180, 277 215.111 C 263.321 214.730, 243.040 206.562, 229.768 196.089 C 207.820 178.768, 196.992 155.856, 198.415 129.750 C 198.768 123.287, 198.869 118, 198.640 118 C 198.411 118, 195.085 122.162, 191.250 127.250 M 373.462 159.407 C 364.901 161.365, 355.736 165.757, 341.845 174.557 C 328.220 183.189, 312.369 190.391, 302.299 192.525 C 284.529 196.290, 262.362 192.479, 246.013 182.849 L 242.500 180.779 244.382 182.864 C 247.480 186.296, 259.449 191.446, 274 195.607 C 290.706 200.385, 316.060 193.101, 346.655 174.735 C 356.838 168.622, 365.993 164.752, 374.358 163.024 C 381.226 161.605, 396.303 161.165, 400.250 162.269 C 402.308 162.845, 403 162.685, 403 161.636 C 403 158.584, 383.493 157.112, 373.462 159.407 M 182.500 214.955 C 185.529 218.184, 203.955 229.669, 209.500 231.784 C 222.504 236.743, 244.231 239.117, 258.299 237.116 C 267.778 235.768, 287.386 228.052, 285.676 226.343 C 285.472 226.139, 282.833 227.103, 279.813 228.486 C 268.639 233.601, 259.707 235.316, 244 235.361 C 222.285 235.423, 208.379 231.162, 190 218.812 C 182.401 213.705, 180.329 212.640, 182.500 214.955" stroke="none" fill="#2d6be5" fill-rule="evenodd"/>
</svg>